<svg width="955" height="414" viewBox="0 0 955 414" fill="none" xmlns="http://www.w3.org/2000/svg">
<path d="M27.604 179V5.79203H59.4355V67.9629C63.3315 60.9997 68.3881 55.6116 74.6052 51.7985C80.9051 47.9853 88.6558 46.0787 97.857 46.0787C112.446 46.0787 123.181 50.3478 130.062 58.8859C136.942 67.3412 140.382 79.0293 140.382 93.9503V179H108.55V96.1884C108.55 88.5621 106.934 82.6352 103.701 78.4076C100.468 74.18 95.0386 72.0661 87.4123 72.0661C78.6255 72.0661 71.7453 75.0089 66.7716 80.8944C61.8809 86.697 59.4355 94.3648 59.4355 103.898V179H27.604ZM154.015 113.845C154.015 103.649 155.424 94.4062 158.242 86.1168C161.061 77.7444 164.998 70.6155 170.055 64.73C175.194 58.7616 181.37 54.1609 188.582 50.9281C195.794 47.6952 203.793 46.0787 212.58 46.0787C221.366 46.0787 229.324 47.6537 236.453 50.8037C243.665 53.9537 249.799 58.3057 254.856 63.8596C259.995 69.3306 263.891 75.8793 266.544 83.5056C269.279 91.1319 270.647 99.3799 270.647 108.25V124.29H187.214V132.869C187.214 140.661 189.742 146.713 194.799 151.023C199.938 155.251 205.99 157.365 212.953 157.365C219.916 157.365 225.594 155.541 229.987 151.894C234.381 148.246 236.992 143.107 237.821 136.475H269.652C267.58 150.899 261.487 162.131 251.374 170.172C241.344 178.13 228.413 182.109 212.58 182.109C203.378 182.109 195.13 180.451 187.836 177.135C180.624 173.819 174.49 169.177 169.433 163.209C164.459 157.24 160.646 150.07 157.994 141.697C155.341 133.325 154.015 124.041 154.015 113.845ZM187.214 99.5457H238.07V94.945C238.07 87.8161 235.666 82.0135 230.858 77.5372C226.05 73.0609 219.957 70.8227 212.58 70.8227C205.285 70.8227 199.234 73.0609 194.426 77.5372C189.618 82.0135 187.214 87.8161 187.214 94.945V99.5457ZM284.653 179V49.1873H357.144V74.0556H316.485V179H284.653ZM365.306 179V49.1873H397.138V67.9629C400.868 60.9997 405.593 55.6116 411.313 51.7985C417.115 47.9853 424.327 46.0787 432.948 46.0787C442.315 46.0787 449.983 48.1925 455.951 52.4202C462.002 56.5649 466.479 62.5333 469.38 70.3254C477.835 54.1609 491.016 46.0787 508.921 46.0787C522.184 46.0787 532.131 50.3478 538.763 58.8859C545.477 67.3412 548.834 79.0293 548.834 93.9503V179H517.003V96.1884C517.003 80.1069 510.91 72.0661 498.725 72.0661C498.642 72.0661 498.559 72.0661 498.476 72.0661C490.85 72.0661 484.674 75.0089 479.949 80.8944C475.307 86.697 472.986 94.3648 472.986 103.898V179H441.155V96.1884C441.155 80.1069 435.02 72.0661 422.752 72.0661C422.669 72.0661 422.586 72.0661 422.503 72.0661C414.877 72.0661 408.743 75.0089 404.101 80.8944C399.459 86.697 397.138 94.3648 397.138 103.898V179H365.306ZM562.592 114.094C562.592 103.898 563.959 94.6549 566.695 86.3654C569.43 77.9931 573.368 70.8227 578.507 64.8543C583.73 58.803 590.113 54.1609 597.656 50.9281C605.199 47.6952 613.82 46.0787 623.519 46.0787C633.218 46.0787 641.839 47.6952 649.382 50.9281C656.925 54.1609 663.267 58.803 668.406 64.8543C673.629 70.8227 677.566 77.9931 680.219 86.3654C682.954 94.6549 684.322 103.898 684.322 114.094C684.322 124.29 682.954 133.532 680.219 141.822C677.566 150.111 673.629 157.282 668.406 163.333C663.267 169.384 656.925 174.026 649.382 177.259C641.839 180.492 633.218 182.109 623.519 182.109C613.82 182.109 605.199 180.492 597.656 177.259C590.113 174.026 583.73 169.384 578.507 163.333C573.368 157.282 569.43 150.111 566.695 141.822C563.959 133.532 562.592 124.29 562.592 114.094ZM595.791 132.869C595.791 140.661 598.402 146.713 603.624 151.023C608.93 155.251 615.561 157.365 623.519 157.365C631.477 157.365 638.067 155.292 643.289 151.147C648.595 147.003 651.247 140.91 651.247 132.869V95.1937C651.247 87.2358 648.595 81.1845 643.289 77.0398C638.067 72.8951 631.477 70.8227 623.519 70.8227C615.561 70.8227 608.93 72.9365 603.624 77.1642C598.402 81.3918 595.791 87.4016 595.791 95.1937V132.869ZM690.743 137.719H722.575C723.901 150.816 731.734 157.365 746.075 157.365C752.209 157.365 757.432 156.245 761.742 154.007C766.053 151.686 768.208 148.039 768.208 143.065C768.208 138.34 766.426 134.942 762.861 132.869C759.297 130.714 754.613 129.015 748.811 127.771L726.429 122.922C704.711 118.197 693.852 105.804 693.852 85.7437C693.852 80.1069 694.971 74.8846 697.209 70.0767C699.53 65.2688 702.846 61.0826 707.156 57.5182C711.467 53.9537 716.73 51.1767 722.948 49.1873C729.165 47.1149 736.252 46.0787 744.21 46.0787C758.965 46.0787 771.068 49.6432 780.518 56.7721C789.968 63.901 795.024 74.6773 795.687 89.101H763.856C763.524 82.9668 761.576 78.4076 758.012 75.4234C754.447 72.3563 749.847 70.8227 744.21 70.8227C738.739 70.8227 734.263 72.0247 730.781 74.4286C727.382 76.7497 725.683 80.024 725.683 84.2516C725.683 88.4793 726.968 91.6292 729.538 93.7016C732.19 95.6911 735.63 97.1417 739.858 98.0536L765.597 103.649C770.322 104.644 774.798 106.136 779.026 108.125C783.336 110.032 787.025 112.519 790.092 115.586C793.159 118.653 795.563 122.3 797.304 126.528C799.128 130.755 800.039 135.771 800.039 141.573C800.039 147.21 798.837 152.474 796.433 157.365C794.03 162.255 790.548 166.524 785.989 170.172C781.43 173.819 775.793 176.72 769.078 178.876C762.364 181.031 754.696 182.109 746.075 182.109C728.75 182.109 715.363 178.295 705.913 170.669C696.463 162.96 691.406 151.976 690.743 137.719ZM804.72 142.071C804.72 131.543 808.367 122.466 815.662 114.84C822.956 107.213 833.484 102.779 847.245 101.535L883.179 98.5509V90.0957C883.179 83.2983 881.356 78.4076 877.708 75.4234C874.061 72.3563 869.087 70.8227 862.787 70.8227C856.321 70.8227 851.058 72.3977 846.996 75.5477C842.934 78.6148 840.903 83.1326 840.903 89.101H809.072C809.237 81.972 810.771 75.755 813.672 70.4497C816.574 65.0616 820.428 60.5853 825.236 57.0208C830.044 53.4563 835.764 50.7623 842.395 48.9386C849.027 47.032 856.239 46.0787 864.031 46.0787C879.615 46.0787 891.925 49.8504 900.96 57.3938C909.996 64.9372 914.513 76.0036 914.513 90.5931V154.256H936.398V179H886.288L886.039 158.857H884.92C881.19 165.986 876.216 171.664 869.999 175.891C863.865 180.036 855.783 182.109 845.752 182.109C839.784 182.109 834.313 181.114 829.339 179.124C824.449 177.135 820.138 174.358 816.408 170.793C812.678 167.229 809.776 163.043 807.704 158.235C805.714 153.427 804.72 148.039 804.72 142.071ZM837.795 145.676C837.795 149.572 839.577 152.515 843.141 154.505C846.706 156.411 851.306 157.365 856.943 157.365C865.067 157.365 871.45 154.505 876.092 148.785C880.817 142.982 883.179 135.978 883.179 127.771V122.673L845.006 126.03C840.281 126.528 837.877 129.346 837.795 134.486V145.676Z" fill="black"/>
<path d="M11.1908 344.623H43.0222C44.3485 357.721 52.1821 364.269 66.5228 364.269C72.657 364.269 77.8793 363.15 82.1899 360.912C86.5004 358.591 88.6556 354.944 88.6556 349.97C88.6556 345.245 86.8734 341.846 83.3089 339.774C79.7445 337.619 75.0609 335.919 69.2583 334.676L46.8768 329.827C25.1585 325.102 14.2993 312.709 14.2993 292.649C14.2993 287.012 15.4184 281.789 17.6565 276.981C19.9776 272.174 23.2933 267.987 27.6039 264.423C31.9144 260.858 37.1782 258.082 43.3952 256.092C49.6123 254.02 56.6998 252.984 64.6577 252.984C79.4129 252.984 91.5155 256.548 100.965 263.677C110.415 270.806 115.472 281.582 116.135 296.006H84.3037C83.9721 289.872 82.0241 285.312 78.4596 282.328C74.8951 279.261 70.2945 277.728 64.6577 277.728C59.1866 277.728 54.7103 278.929 51.2288 281.333C47.8301 283.654 46.1308 286.929 46.1308 291.156C46.1308 295.384 47.4156 298.534 49.9854 300.606C52.638 302.596 56.0781 304.047 60.3057 304.958L86.0444 310.554C90.7694 311.548 95.2457 313.041 99.4734 315.03C103.784 316.937 107.473 319.423 110.54 322.491C113.607 325.558 116.011 329.205 117.752 333.433C119.575 337.66 120.487 342.675 120.487 348.478C120.487 354.115 119.285 359.379 116.881 364.269C114.477 369.16 110.996 373.429 106.436 377.077C101.877 380.724 96.2405 383.625 89.526 385.78C82.8116 387.936 75.1438 389.013 66.5228 389.013C49.1979 389.013 35.8104 385.2 26.3604 377.574C16.9105 369.865 11.8539 358.881 11.1908 344.623ZM126.411 320.998C126.411 310.802 127.778 301.56 130.514 293.27C133.25 284.898 137.187 277.728 142.326 271.759C147.549 265.708 153.932 261.066 161.475 257.833C169.018 254.6 177.64 252.984 187.338 252.984C197.037 252.984 205.658 254.6 213.201 257.833C220.745 261.066 227.086 265.708 232.226 271.759C237.448 277.728 241.385 284.898 244.038 293.27C246.773 301.56 248.141 310.802 248.141 320.998C248.141 331.194 246.773 340.437 244.038 348.727C241.385 357.016 237.448 364.186 232.226 370.238C227.086 376.289 220.745 380.931 213.201 384.164C205.658 387.397 197.037 389.013 187.338 389.013C177.64 389.013 169.018 387.397 161.475 384.164C153.932 380.931 147.549 376.289 142.326 370.238C137.187 364.186 133.25 357.016 130.514 348.727C127.778 340.437 126.411 331.194 126.411 320.998ZM159.61 339.774C159.61 347.566 162.221 353.617 167.443 357.928C172.749 362.156 179.38 364.269 187.338 364.269C195.296 364.269 201.886 362.197 207.108 358.052C212.414 353.908 215.066 347.815 215.066 339.774V302.098C215.066 294.141 212.414 288.089 207.108 283.945C201.886 279.8 195.296 277.728 187.338 277.728C179.38 277.728 172.749 279.841 167.443 284.069C162.221 288.297 159.61 294.306 159.61 302.098V339.774ZM250.708 280.712V256.092H276.198V212.697H340.358V237.441H308.029V256.092H337.871V280.712H308.029V385.905H276.198V280.712H250.708ZM334.594 280.712V256.092H360.332V212.697H392.164V256.092H424.493V280.712H392.164V361.161H424.493V385.905H360.332V280.712H334.594ZM424.199 256.092H459.885L478.785 350.219H479.78L498.804 256.092H538.593L558.239 350.219H559.234L578.507 256.092H613.696L577.512 385.905H539.091L519.445 291.654H518.45L498.804 385.905H460.383L424.199 256.092ZM614.397 348.975C614.397 338.448 618.045 329.371 625.339 321.744C632.634 314.118 643.162 309.683 656.922 308.44L692.857 305.456V297C692.857 290.203 691.033 285.312 687.386 282.328C683.738 279.261 678.765 277.728 672.465 277.728C665.999 277.728 660.735 279.303 656.673 282.452C652.612 285.52 650.581 290.037 650.581 296.006H618.749C618.915 288.877 620.448 282.66 623.35 277.354C626.251 271.966 630.106 267.49 634.914 263.926C639.721 260.361 645.441 257.667 652.073 255.843C658.704 253.937 665.916 252.984 673.708 252.984C689.292 252.984 701.602 256.755 710.638 264.299C719.673 271.842 724.191 282.908 724.191 297.498V361.161H746.075V385.905H695.965L695.717 365.761H694.598C690.867 372.89 685.894 378.569 679.677 382.796C673.542 386.941 665.46 389.013 655.43 389.013C649.462 389.013 643.99 388.019 639.017 386.029C634.126 384.04 629.816 381.263 626.085 377.698C622.355 374.134 619.454 369.948 617.381 365.14C615.392 360.332 614.397 354.944 614.397 348.975ZM647.472 352.581C647.472 356.477 649.254 359.42 652.819 361.409C656.383 363.316 660.984 364.269 666.621 364.269C674.744 364.269 681.127 361.409 685.769 355.69C690.494 349.887 692.857 342.883 692.857 334.676V329.578L654.684 332.935C649.959 333.433 647.555 336.251 647.472 341.39V352.581ZM750.507 385.905V256.092H822.998V280.96H782.338V385.905H750.507ZM824.445 320.75C824.445 310.554 825.854 301.311 828.673 293.022C831.491 284.649 835.429 277.52 840.485 271.635C845.625 265.666 851.8 261.066 859.012 257.833C866.224 254.6 874.223 252.984 883.01 252.984C891.797 252.984 899.755 254.559 906.884 257.709C914.095 260.858 920.23 265.21 925.286 270.764C930.426 276.235 934.322 282.784 936.974 290.41C939.71 298.037 941.078 306.285 941.078 315.154V331.194H857.644V339.774C857.644 347.566 860.173 353.617 865.229 357.928C870.369 362.156 876.42 364.269 883.383 364.269C890.346 364.269 896.024 362.446 900.418 358.798C904.811 355.151 907.422 350.011 908.251 343.38H940.083C938.01 357.804 931.918 369.036 921.805 377.077C911.774 385.034 898.843 389.013 883.01 389.013C873.809 389.013 865.561 387.355 858.266 384.04C851.054 380.724 844.92 376.082 839.863 370.113C834.89 364.145 831.077 356.975 828.424 348.602C825.771 340.23 824.445 330.946 824.445 320.75ZM857.644 306.45H908.5V301.85C908.5 294.721 906.096 288.918 901.288 284.442C896.48 279.966 890.388 277.728 883.01 277.728C875.715 277.728 869.664 279.966 864.856 284.442C860.048 288.918 857.644 294.721 857.644 301.85V306.45Z" fill="black"/>
</svg>
